PathFileType	4	(X/Y/Z)	C:/Users/opensim2020/Desktop/walking_exp_matlab/subject03_walking04_straight_04.trc																																																																																																																																																							
DataRate	CameraRate	NumFrames	NumMarkers	Units	OrigDataRate	OrigDataStartFrame	OrigNumFrames																																																																																																																																																			
100	100	4	51	mm	100	3282	293																																																																																																																																																			
Frame#	Time	LFHD			RFHD			LBHD			RBHD			C7			T10			CLAV			STRN			RBAK			LSHO			LUPA			LELB			LFRM			LWRA			LWRB			LFIN			RSHO			RUPA			RELB			RFRM			RWRA			RWRB			RFIN			LASI			RASI			LPSI			RPSI			LTHI			LKNE			LTIB			LANK			LHEE			LTOE			RTHI			RKNE			RTIB			RANK			RHEE			RTOE			*39			*40			*41			*42			*43			*44			*45			*46			*47			*48			*49			*50		
		X1	Y1	Z1	X2	Y2	Z2	X3	Y3	Z3	X4	Y4	Z4	X5	Y5	Z5	X6	Y6	Z6	X7	Y7	Z7	X8	Y8	Z8	X9	Y9	Z9	X10	Y10	Z10	X11	Y11	Z11	X12	Y12	Z12	X13	Y13	Z13	X14	Y14	Z14	X15	Y15	Z15	X16	Y16	Z16	X17	Y17	Z17	X18	Y18	Z18	X19	Y19	Z19	X20	Y20	Z20	X21	Y21	Z21	X22	Y22	Z22	X23	Y23	Z23	X24	Y24	Z24	X25	Y25	Z25	X26	Y26	Z26	X27	Y27	Z27	X28	Y28	Z28	X29	Y29	Z29	X30	Y30	Z30	X31	Y31	Z31	X32	Y32	Z32	X33	Y33	Z33	X34	Y34	Z34	X35	Y35	Z35	X36	Y36	Z36	X37	Y37	Z37	X38	Y38	Z38	X39	Y39	Z39	X40	Y40	Z40	X41	Y41	Z41	X42	Y42	Z42	X43	Y43	Z43	X44	Y44	Z44	X45	Y45	Z45	X46	Y46	Z46	X47	Y47	Z47	X48	Y48	Z48	X49	Y49	Z49	X50	Y50	Z50	X51	Y51	Z51
																																																																																																																																																										
257	2.56	889.14014	1595.76965	-1674.61365	843.51898	1590.7854	-1549.22632	759.86713	1582.10132	-1716.7533	720.62402	1576.32092	-1592.95618	687.07977	1412.23743	-1673.75513	642.80054	1095.74353	-1674.65491	802.17554	1328.51294	-1660.45593	841.84839	1163.44165	-1669.12573	614.84265	1231.75732	-1591.54663	774.96948	1374.94128	-1817.17383	812.47784	1190.95044	-1895.80005	860.88489	1078.56238	-1906.77258	944.04962	980.35657	-1892.76257	1012.39368	889.61591	-1848.19775	998.29767	880.26672	-1900.80945	1055.7373	822.64514	-1883.30151	735.20984	1348.33167	-1507.20178	706.58466	1124.50024	-1444.47644	710.55292	1011.66913	-1432.98486	715.57538	874.34149	-1434.61938	743.93372	778.25671	-1468.72742	705.11176	774.2995	-1430.61353	723.98108	702.27905	-1439.90991	808.50165	932.50446	-1793.48291	813.13092	927.94861	-1553.01135	647.34998	957.11609	-1737.80957	652.08344	954.31183	-1588.83154	710.02557	637.22021	-1820.35681	675.24152	463.26486	-1779.6582	581.71057	288.15051	-1775.54822	517.98151	87.67429	-1729.68274	475.1445	58.13905	-1690.37781	665.57263	35.4426	-1718.50073	812.49799	632.32788	-1509.76013	889.27002	470.7095	-1554.23853	908.73254	287.16263	-1555.3241	972.01355	79.19632	-1602.08948	948.0318	41.23097	-1662.24524	1116.94751	75.15749	-1599.29504	807.94147	1671.0719	-1644.51245	NaN	NaN	NaN	NaN	NaN	NaN	NaN	NaN	NaN	NaN	NaN	NaN	NaN	NaN	NaN	NaN	NaN	NaN	NaN	NaN	NaN	NaN	NaN	NaN	NaN	NaN	NaN	NaN	NaN	NaN	NaN	NaN	NaN
258	2.57	898.61053	1594.69104	-1673.5166	853.021	1589.4198	-1548.20386	769.4032	1581.29285	-1715.91577	729.93402	1575.21875	-1592.17261	696.55225	1411.25903	-1673.13049	652.14575	1094.72839	-1673.72314	811.64307	1327.44861	-1660.03613	851.2514	1162.36084	-1668.92651	624.30817	1230.70935	-1590.93384	784.09607	1373.9801	-1816.65723	821.90778	1190.25171	-1895.40759	870.69238	1078.14771	-1906.33655	954.9679	981.12958	-1891.89771	1024.55103	891.79962	-1846.8136	1010.64539	881.82013	-1899.29443	1069.29065	825.66638	-1881.66589	744.83514	1347.2218	-1506.61218	714.91797	1123.43066	-1444.32373	717.49701	1010.16498	-1433.276	721.27979	873.05951	-1434.41785	748.37994	776.58093	-1468.29272	709.69415	773.15698	-1430.33423	727.53699	700.88947	-1439.56299	817.28674	931.76245	-1793.51733	823.0592	926.69354	-1553.02502	657.54669	955.55267	-1736.06885	661.96747	953.0647	-1587.74146	717.34448	636.92841	-1820.599	681.53485	462.98532	-1780.29944	585.58386	288.98587	-1776.15002	518.93512	89.25539	-1730.24744	475.39984	60.56321	-1690.79272	665.71387	35.39771	-1718.58362	820.60089	630.41083	-1510.48401	896.78577	468.66324	-1555.04163	919.49182	286.38922	-1556.20215	987.03735	79.93858	-1602.10303	965.20221	41.58112	-1662.8374	1133.60132	77.52869	-1598.92126	817.43976	1670.0083	-1643.41919	NaN	NaN	NaN	NaN	NaN	NaN	NaN	NaN	NaN	NaN	NaN	NaN	NaN	NaN	NaN	NaN	NaN	NaN	NaN	NaN	NaN	NaN	NaN	NaN	NaN	NaN	NaN	NaN	NaN	NaN	NaN	NaN	NaN
259	2.58	908.03503	1593.70715	-1672.29761	862.23291	1588.25269	-1547.0957	778.83545	1580.60327	-1714.93335	739.16125	1574.36792	-1591.23169	706.02362	1410.24402	-1672.3822	661.67841	1093.73303	-1672.69873	821.17792	1326.50305	-1659.44641	860.83234	1161.42798	-1668.65991	633.94305	1229.7168	-1590.28064	793.36804	1373.11218	-1816.1228	831.07257	1189.54968	-1894.79102	880.23126	1077.57397	-1905.79077	965.56903	981.75201	-1890.95874	1036.42761	893.81842	-1845.37012	1022.55194	883.17969	-1897.70947	1082.22412	828.42627	-1879.95471	754.65448	1346.14026	-1506.0592	723.67371	1122.28345	-1444.0874	725.24005	1009.008	-1433.28406	727.44238	871.93445	-1434.25708	753.73395	774.95514	-1467.81897	714.50098	772.09674	-1430.06775	731.38629	699.565	-1439.26697	826.30157	930.98035	-1793.53198	833.0705	925.62384	-1553.00745	666.22546	954.94946	-1735.29797	671.94159	951.91516	-1586.65808	725.01068	636.77448	-1820.83655	688.26941	462.70398	-1781.00281	589.91229	289.89496	-1776.65955	519.96472	91.37132	-1731.0293	476.13971	63.26973	-1691.43396	665.85632	35.28029	-1718.62659	829.23834	628.54431	-1511.36133	905.0332	466.97061	-1555.69739	929.59711	285.54453	-1556.95886	1000.73529	79.34904	-1602.61597	978.99164	41.3054	-1663.18213	1147.21655	78.79938	-1599.44861	826.86261	1668.98779	-1642.18665	NaN	NaN	NaN	NaN	NaN	NaN	NaN	NaN	NaN	NaN	NaN	NaN	NaN	NaN	NaN	NaN	NaN	NaN	NaN	NaN	NaN	NaN	NaN	NaN	NaN	NaN	NaN	NaN	NaN	NaN	NaN	NaN	NaN
260	2.59	917.46051	1592.89087	-1671.1261	871.4931	1587.14355	-1545.99609	788.35138	1580.07959	-1713.9939	748.55554	1573.61243	-1590.28589	715.27399	1409.29565	-1671.64185	670.98749	1093.10754	-1672.0459	830.91565	1325.71692	-1658.9176	870.59735	1160.60217	-1668.26868	643.55322	1228.80737	-1589.68286	802.7207	1372.35168	-1815.53723	839.93616	1188.80115	-1894.24182	889.58014	1077.02136	-1905.18738	975.78522	982.24597	-1890.08923	1047.74207	895.47333	-1843.95337	1033.91541	884.34662	-1896.18396	1094.62439	830.93335	-1878.31433	764.12231	1345.15039	-1505.43457	732.6319	1121.40198	-1443.87769	733.43994	1008.07062	-1433.12183	734.02887	870.88361	-1434.01172	759.06763	773.61072	-1467.42346	719.85022	771.25183	-1429.69641	735.64856	698.39484	-1439.0105	835.55463	930.27454	-1793.40588	843.17969	924.71106	-1552.9856	675.23889	954.30414	-1734.50452	682.01434	951.01086	-1585.60059	733.04602	636.55774	-1821.04077	695.36334	462.51706	-1781.78003	594.35791	290.90677	-1777.34412	521.33838	93.12177	-1731.42639	476.77505	66.14735	-1692.09924	665.99878	35.17193	-1718.71008	838.43506	627.18634	-1512.23401	914.39716	465.73901	-1556.15454	939.17395	284.51224	-1557.63611	1011.02478	78.34266	-1603.22168	989.185	40.28246	-1663.72278	1157.76038	78.42229	-1600.77148	836.43622	1668.22913	-1640.91064	NaN	NaN	NaN	NaN	NaN	NaN	NaN	NaN	NaN	NaN	NaN	NaN	NaN	NaN	NaN	NaN	NaN	NaN	NaN	NaN	NaN	NaN	NaN	NaN	NaN	NaN	NaN	NaN	NaN	NaN	NaN	NaN	NaN
